<?xml version="1.0" encoding="UTF-8"?>
<svg version="1.1" xmlns="http://www.w3.org/2000/svg" width="500" height="500">
<path d="M0 0 C0.82556396 -0.00845947 1.65112793 -0.01691895 2.50170898 -0.02563477 C3.85526237 -0.01652573 3.85526237 -0.01652573 5.23616028 -0.00723267 C6.1893515 -0.01248962 7.14254272 -0.01774658 8.12461853 -0.02316284 C11.2841163 -0.03639398 14.4431122 -0.02761012 17.60261536 -0.01748657 C19.79876807 -0.01950725 21.99492014 -0.02241863 24.19107056 -0.02618408 C28.80040355 -0.03061235 33.40956236 -0.02416322 38.01887512 -0.01016235 C43.9157391 0.00687943 49.81219195 -0.00287683 55.70904064 -0.02087975 C60.24820014 -0.03174689 64.78726306 -0.02825691 69.32642555 -0.02049637 C71.49965272 -0.01849985 73.67288876 -0.02093431 75.84610558 -0.02793503 C78.89302459 -0.03559193 81.93928967 -0.02388345 84.98616028 -0.00723267 C86.32453194 -0.01634171 86.32453194 -0.01634171 87.68994141 -0.02563477 C96.49389357 0.06306366 103.21379991 3.38265532 110.93464661 7.38095093 C110.93464661 8.04095093 110.93464661 8.70095093 110.93464661 9.38095093 C111.49152161 9.44282593 112.04839661 9.50470093 112.62214661 9.56845093 C120.13530168 12.20820812 126.15713366 22.59483547 129.74714661 29.25595093 C135.66376943 41.84823701 135.30704141 56.37268739 130.93464661 69.38095093 C124.66919458 83.03250493 114.91076483 93.66423212 100.93464661 99.38095093 C96.7318926 100.76414781 92.46440267 101.77884596 88.13777161 102.68954468 C85.05884952 103.21533836 85.05884952 103.21533836 82.93464661 104.38095093 C82.92006409 105.45989624 82.90548157 106.53884155 82.89045715 107.65048218 C82.83213723 111.68384633 82.75490868 115.71667174 82.67219543 119.74960327 C82.63910368 121.48942265 82.61102353 123.22934532 82.58821106 124.96932983 C82.55437306 127.48198134 82.50204635 129.99369959 82.44636536 132.50595093 C82.43997543 133.27399048 82.43358551 134.04203003 82.42700195 134.83334351 C82.26562698 140.86764267 81.24563306 146.66028961 77.21589661 151.40438843 C76.62808411 151.85040405 76.04027161 152.29641968 75.43464661 152.75595093 C74.55292786 153.44817749 74.55292786 153.44817749 73.65339661 154.15438843 C69.13209884 157.38095093 69.13209884 157.38095093 65.93464661 157.38095093 C65.93464661 158.04095093 65.93464661 158.70095093 65.93464661 159.38095093 C65.27464661 159.38095093 64.61464661 159.38095093 63.93464661 159.38095093 C63.68070129 160.4199353 63.42675598 161.45891968 63.16511536 162.52938843 C57.74289349 184.57270404 57.74289349 184.57270404 54.93464661 187.38095093 C52.18979068 187.52602788 49.54984118 187.56747516 46.80964661 187.50595093 C46.05554504 187.49692749 45.30144348 187.48790405 44.52449036 187.47860718 C42.66107406 187.45501963 40.79782068 187.41914812 38.93464661 187.38095093 C39.51773676 180.1036829 41.08244388 173.44364021 43.12214661 166.44345093 C43.40122864 165.42315796 43.68031067 164.40286499 43.96784973 163.35165405 C45.76883439 157.12175791 48.08094023 151.94116251 51.64631653 146.51669312 C53.38241364 143.63866061 54.04943657 140.60564463 54.93464661 137.38095093 C56.93464661 134.69345093 56.93464661 134.69345093 58.93464661 132.38095093 C61.33443082 128.78127461 61.54371774 125.64444885 60.93464661 121.38095093 C56.58283917 117.84138009 52.20779051 116.2749093 46.91120911 114.80282593 C46.16503326 114.58652527 45.41885742 114.37022461 44.65007019 114.14736938 C42.28928137 113.46543316 39.92467998 112.79799927 37.55964661 112.13095093 C35.94869474 111.66836511 34.33801439 111.20483266 32.72761536 110.74032593 C28.7996801 109.60956529 24.86826193 108.49178308 20.93464661 107.38095093 C19.92131542 101.32991615 19.81498835 96.83934071 23.12214661 91.44345093 C26.54475851 89.43709223 30.43022564 90.02443068 34.18977356 90.91537476 C36.64415373 91.6471703 39.07071519 92.43633937 41.49714661 93.25595093 C42.32150208 93.52536499 43.14585754 93.79477905 43.99519348 94.07235718 C45.59387827 94.59630663 47.19058342 95.12634527 48.7849884 95.66317749 C50.61557934 96.27441399 52.45769995 96.85094187 54.30183411 97.42001343 C56.77906445 98.32416575 58.44480283 99.25885753 60.49714661 100.88095093 C63.19460503 102.91303628 65.70290496 104.30370371 68.93464661 105.38095093 C68.60464661 104.39095093 68.27464661 103.40095093 67.93464661 102.38095093 C67.27464661 102.05095093 66.61464661 101.72095093 65.93464661 101.38095093 C65.93464661 100.72095093 65.93464661 100.06095093 65.93464661 99.38095093 C65.27464661 99.38095093 64.61464661 99.38095093 63.93464661 99.38095093 C64.30707553 91.18751451 68.09299846 82.5154324 74.18464661 76.94345093 C78.39078756 73.77237821 84.5453881 69.38095093 89.93464661 69.38095093 C89.93464661 68.72095093 89.93464661 68.06095093 89.93464661 67.38095093 C90.59464661 67.38095093 91.25464661 67.38095093 91.93464661 67.38095093 C92.18214661 66.84470093 92.42964661 66.30845093 92.68464661 65.75595093 C93.93464661 63.38095093 93.93464661 63.38095093 95.99714661 60.44345093 C99.96437267 54.17267425 99.91665125 45.90494475 98.36824036 38.77157593 C97.11306982 34.74977295 95.98676944 32.31049232 92.93464661 29.38095093 C92.80412903 29.96062622 92.67361145 30.54030151 92.53913879 31.13754272 C91.93485994 33.78456985 91.30998086 36.42632229 90.68464661 39.06845093 C90.47968567 39.98046265 90.27472473 40.89247437 90.06355286 41.8321228 C88.84975791 46.88960175 87.75907585 50.62536141 83.93464661 54.38095093 C79.258495 56.71902673 74.20080166 55.72765275 69.36824036 54.40438843 C57.83211258 50.48282674 57.83211258 50.48282674 54.93464661 46.38095093 C53.30735983 39.72585884 54.46220797 33.99716783 55.87214661 27.38095093 C56.06743958 26.41544312 56.26273254 25.4499353 56.46394348 24.45516968 C56.94307403 22.09457528 57.43348607 19.73694845 57.93464661 17.38095093 C57.15089661 18.04095093 56.36714661 18.70095093 55.55964661 19.38095093 C52.93464661 21.38095093 52.93464661 21.38095093 50.93464661 21.38095093 C50.68714661 21.93782593 50.43964661 22.49470093 50.18464661 23.06845093 C48.93464661 25.38095093 48.93464661 25.38095093 46.93464661 27.81845093 C41.51495144 34.76243536 41.63765269 43.77754518 42.18464661 52.25595093 C42.85427655 55.49763185 42.85427655 55.49763185 44.49714661 58.75595093 C47.50847448 66.34973426 45.70668241 73.72371626 43.62214661 81.38095093 C43.40880676 82.23817749 43.19546692 83.09540405 42.97566223 83.97860718 C42.75974426 84.79200562 42.54382629 85.60540405 42.32136536 86.44345093 C42.12760315 87.17692749 41.93384094 87.91040405 41.73420715 88.66610718 C41.47035217 89.23200562 41.20649719 89.79790405 40.93464661 90.38095093 C37.93464661 91.38095093 37.93464661 91.38095093 35.18464661 90.44345093 C31.4731139 89.23006524 28.81714037 88.95740615 24.93464661 89.38095093 C22.1813564 91.17657498 20.408372 92.43350015 18.93464661 95.38095093 C18.83140543 97.2966484 18.75141877 99.21363587 18.68464661 101.13095093 C18.27575231 106.97328801 18.27575231 106.97328801 15.37214661 110.44345093 C12.13639159 114.34295056 12.48448676 116.97842899 12.66120911 121.89266968 C12.86028382 124.50904329 12.86028382 124.50904329 13.93464661 127.38095093 C11.95464661 128.37095093 11.95464661 128.37095093 9.93464661 129.38095093 C9.73589813 135.58632017 9.91604412 140.46932935 11.93464661 146.38095093 C11.26797994 147.71428426 10.60131327 149.04761759 9.93464661 150.38095093 C9.91584975 154.519136 9.91584975 154.519136 10.93464661 158.38095093 C13.83618212 160.92893259 13.83618212 160.92893259 16.93464661 162.38095093 C15.25699645 170.92171534 12.5946248 179.10659129 9.93464661 187.38095093 C7.85196067 187.4622118 5.76836002 187.52025932 3.68464661 187.56845093 C2.52449036 187.60325562 1.36433411 187.6380603 0.16902161 187.67391968 C-3.473835 187.34395078 -4.57723728 187.00953177 -7.06535339 184.38095093 C-7.46513627 181.8352375 -7.60184088 179.71626067 -7.56655884 177.16891479 C-7.57209323 176.42934524 -7.57762763 175.68977569 -7.58332974 174.92779493 C-7.59697458 172.44244035 -7.5819471 169.95808337 -7.56706238 167.4727478 C-7.57084418 165.69393994 -7.57634307 163.91513502 -7.58343506 162.13633728 C-7.59742512 157.29956625 -7.58619506 152.46314953 -7.56972384 147.62639809 C-7.55589927 142.57090585 -7.56233046 137.51543472 -7.56585693 132.45993042 C-7.56856111 123.96919019 -7.5550656 115.47859116 -7.53190613 106.98788452 C-7.5052951 97.16360688 -7.50354852 87.33956537 -7.51529449 77.51526403 C-7.52606401 68.07471532 -7.5198917 58.63425224 -7.50573921 49.19371033 C-7.49997223 45.17142214 -7.50006768 41.14919647 -7.50480461 37.12690735 C-7.50956785 32.39252033 -7.4994999 27.65839274 -7.47784996 22.9240551 C-7.47227299 21.18375969 -7.4718251 19.44343939 -7.47680283 17.70314217 C-7.48273368 15.33280006 -7.47029373 12.96325703 -7.45303345 10.59298706 C-7.45904349 9.8995103 -7.46505354 9.20603354 -7.47124571 8.49154234 C-7.43433354 5.71603532 -7.3439681 3.80363845 -5.79520798 1.4540081 C-3.69486036 0.15112802 -2.46513101 0.0038893 0 0 Z " fill="#F6611C" transform="translate(186.0653533935547,150.61904907226563)"/>
<path d="M0 0 C2.45438017 0.73179555 4.88094164 1.52096462 7.30737305 2.34057617 C8.54390625 2.74469727 8.54390625 2.74469727 9.80541992 3.15698242 C11.40410471 3.68093187 13.00080987 4.21097051 14.59521484 4.74780273 C16.42580578 5.35903923 18.26792639 5.93556711 20.11206055 6.50463867 C22.58929089 7.40879099 24.25502927 8.34348278 26.30737305 9.96557617 C29.00483147 11.99766152 31.5131314 13.38832896 34.74487305 14.46557617 C34.24987305 12.98057617 34.24987305 12.98057617 33.74487305 11.46557617 C33.08487305 11.13557617 32.42487305 10.80557617 31.74487305 10.46557617 C31.74487305 9.80557617 31.74487305 9.14557617 31.74487305 8.46557617 C31.08487305 8.46557617 30.42487305 8.46557617 29.74487305 8.46557617 C30.07487305 6.15557617 30.40487305 3.84557617 30.74487305 1.46557617 C31.07487305 1.46557617 31.40487305 1.46557617 31.74487305 1.46557617 C32.23987305 4.43557617 32.23987305 4.43557617 32.74487305 7.46557617 C34.72233908 8.19637884 36.72559794 8.85979364 38.74487305 9.46557617 C39.40487305 9.13557617 40.06487305 8.80557617 40.74487305 8.46557617 C40.74487305 10.11557617 40.74487305 11.76557617 40.74487305 13.46557617 C42.39487305 13.13557617 44.04487305 12.80557617 45.74487305 12.46557617 C45.74487305 11.80557617 45.74487305 11.14557617 45.74487305 10.46557617 C48.41637041 9.12982749 50.90528318 9.02107051 53.86987305 8.65307617 C59.65912366 7.81507415 63.65434618 6.24222719 68.74487305 3.46557617 C70.06487305 3.46557617 71.38487305 3.46557617 72.74487305 3.46557617 C72.74487305 2.80557617 72.74487305 2.14557617 72.74487305 1.46557617 C74.06487305 1.79557617 75.38487305 2.12557617 76.74487305 2.46557617 C69.569171 7.6403613 62.58531436 9.83079805 54.08862305 11.70385742 C50.89273107 12.29273953 50.89273107 12.29273953 48.74487305 13.46557617 C48.73029053 14.54452148 48.71570801 15.6234668 48.70068359 16.73510742 C48.64236367 20.76847158 48.56513512 24.80129698 48.48242188 28.83422852 C48.44933012 30.57404789 48.42124997 32.31397056 48.3984375 34.05395508 C48.3645995 36.56660658 48.31227279 39.07832483 48.2565918 41.59057617 C48.24700691 42.7426355 48.24700691 42.7426355 48.23722839 43.91796875 C48.07585342 49.95226792 47.0558595 55.74491485 43.02612305 60.48901367 C42.43831055 60.9350293 41.85049805 61.38104492 41.24487305 61.84057617 C40.65706055 62.30206055 40.06924805 62.76354492 39.46362305 63.23901367 C34.94232528 66.46557617 34.94232528 66.46557617 31.74487305 66.46557617 C31.74487305 67.12557617 31.74487305 67.78557617 31.74487305 68.46557617 C31.08487305 68.46557617 30.42487305 68.46557617 29.74487305 68.46557617 C29.36395508 70.02405273 29.36395508 70.02405273 28.9753418 71.61401367 C23.55311993 93.65732928 23.55311993 93.65732928 20.74487305 96.46557617 C18.00001712 96.61065312 15.36006762 96.6521004 12.61987305 96.59057617 C11.86577148 96.58155273 11.11166992 96.5725293 10.3347168 96.56323242 C8.4713005 96.53964487 6.60804712 96.50377336 4.74487305 96.46557617 C5.3279632 89.18830815 6.89267032 82.52826546 8.93237305 75.52807617 C9.21145508 74.5077832 9.49053711 73.48749023 9.77807617 72.4362793 C11.57906083 66.20638315 13.89116667 61.02578776 17.45654297 55.60131836 C19.19264008 52.72328586 19.85966301 49.69026988 20.74487305 46.46557617 C22.74487305 43.77807617 22.74487305 43.77807617 24.74487305 41.46557617 C27.14465726 37.86589985 27.35394418 34.7290741 26.74487305 30.46557617 C22.39306561 26.92600533 18.01801695 25.35953454 12.72143555 23.88745117 C11.60217178 23.56300018 11.60217178 23.56300018 10.46029663 23.23199463 C8.09950781 22.55005841 5.73490643 21.88262451 3.36987305 21.21557617 C1.75892118 20.75299036 0.14824083 20.2894579 -1.4621582 19.82495117 C-5.39009346 18.69419053 -9.32151163 17.57640832 -13.25512695 16.46557617 C-14.26845814 10.4145414 -14.37478521 5.92396596 -11.06762695 0.52807617 C-7.64501505 -1.47828253 -3.75954792 -0.89094407 0 0 Z " fill="#F4631E" transform="translate(220.255126953125,241.534423828125)"/>
<path d="M0 0 C5.68776631 -0.22725814 10.28341335 0.38356357 15.6875 2.25 C17.07669204 2.7074289 18.46601724 3.16445361 19.85546875 3.62109375 C20.54431152 3.8516748 21.2331543 4.08225586 21.94287109 4.31982422 C25.11355381 5.36818905 28.30568905 6.33849699 31.5 7.3125 C32.5621875 7.63863281 33.624375 7.96476562 34.71875 8.30078125 C35.4715625 8.53152344 36.224375 8.76226562 37 9 C38.30665242 14.1460626 37.54392336 17.40173854 35 22 C32.3125 24.5 32.3125 24.5 30 26 C30.495 26.99 30.495 26.99 31 28 C28.2554511 31.98167511 26.16922776 34.60329773 21.5 36.1875 C13.7194904 36.53363486 4.27760271 33.54148914 -2 29 C-3.05543562 25.69296839 -3.34452118 23.87278698 -2.0625 20.625 C-1.711875 20.08875 -1.36125 19.5525 -1 19 C4.23115393 18.78455994 8.43785303 19.47629807 13.4375 21 C14.67371094 21.37125 15.90992188 21.7425 17.18359375 22.125 C18.11300781 22.41375 19.04242188 22.7025 20 23 C16.89104116 22.07791565 13.78888719 21.13471067 10.6875 20.1875 C9.80642578 19.92646484 8.92535156 19.66542969 8.01757812 19.39648438 C7.17001953 19.13544922 6.32246094 18.87441406 5.44921875 18.60546875 C4.66893311 18.36981201 3.88864746 18.13415527 3.0847168 17.89135742 C0.76941082 16.90140753 -0.43595334 15.96365773 -2 14 C-3.56309176 8.19423062 -2.62432894 5.14368472 0 0 Z " fill="#F4611C" transform="translate(200,279)"/>
<path d="M0 0 C1.89954587 0.71050121 3.79820375 1.4235481 5.69042969 2.15332031 C10.59477133 3.9512333 15.64893696 5.30472002 20.66601562 6.75 C25.61257894 8.20109268 30.38117967 9.69058984 35 12 C36.8104178 16.00197618 35.9198084 18.86177126 34.4375 22.8125 C33.49609375 25.14453125 33.49609375 25.14453125 32 27 C27.69785567 28.09319599 24.73127325 27.96566864 20.515625 26.671875 C19.49726563 26.36636719 18.47890625 26.06085938 17.4296875 25.74609375 C16.38039062 25.41738281 15.33109375 25.08867187 14.25 24.75 C13.21617187 24.43675781 12.18234375 24.12351562 11.1171875 23.80078125 C9.06584551 23.1781447 7.01694323 22.54740706 4.97070312 21.90820312 C3.01450256 21.31015364 1.04942667 20.74029092 -0.92382812 20.20117188 C-1.82037109 19.95431641 -2.71691406 19.70746094 -3.640625 19.453125 C-4.43500977 19.24333008 -5.22939453 19.03353516 -6.04785156 18.81738281 C-8 18 -8 18 -10 15 C-10.62531066 10.66342999 -10.45478601 6.99226038 -8.625 3 C-5.99547826 -0.23633445 -4.03611778 -0.35096676 0 0 Z " fill="#F4631E" transform="translate(210,259)"/>
<path d="M0 0 C0.66 0.33 1.32 0.66 2 1 C1.01 2.485 1.01 2.485 0 4 C-0.20043117 6.43558869 -0.28528791 8.75801903 -0.2784729 11.19425964 C-0.2871615 12.30066369 -0.2871615 12.30066369 -0.29602563 13.42941934 C-0.31306745 15.9076614 -0.3159057 18.3857177 -0.31884766 20.86401367 C-0.32814296 22.63783731 -0.33831103 24.41165656 -0.34928894 26.18547058 C-0.37664794 31.00744387 -0.3917558 35.82938785 -0.40471697 40.65141845 C-0.42032174 45.68832633 -0.44712038 50.72517412 -0.4727478 55.76203918 C-0.51958267 65.30297832 -0.55630397 74.8439287 -0.58942068 84.38492423 C-0.62760884 95.24576741 -0.67702763 106.10655032 -0.72740483 116.96734273 C-0.8307947 139.31151802 -0.91963375 161.65573107 -1 184 C3.62 184.33 8.24 184.66 13 185 C13 183.02 13 181.04 13 179 C12.34 178.67 11.68 178.34 11 178 C11.495 174.04 11.495 174.04 12 170 C13.65 169.67 15.3 169.34 17 169 C17 168.01 17 167.02 17 166 C17.66 166 18.32 166 19 166 C19 164.68 19 163.36 19 162 C17.68 162 16.36 162 15 162 C11.99440348 156.99067246 11.70658112 153.67276511 12 148 C12.66 148 13.32 148 14 148 C13.95875 149.0725 13.9175 150.145 13.875 151.25 C13.97695407 155.504385 13.97695407 155.504385 16 159 C18.53188648 160.75322937 18.53188648 160.75322937 21 162 C19.32234985 170.54076441 16.65997819 178.72564036 14 187 C11.91731407 187.08126087 9.83371342 187.13930839 7.75 187.1875 C6.58984375 187.22230469 5.4296875 187.25710938 4.234375 187.29296875 C0.5915184 186.96299985 -0.51188389 186.62858084 -3 184 C-3.39978287 181.45428657 -3.53648748 179.33530974 -3.50120544 176.78796387 C-3.50673984 176.04839431 -3.51227424 175.30882476 -3.51797634 174.54684401 C-3.53162119 172.06148942 -3.5165937 169.57713245 -3.50170898 167.09179688 C-3.50549079 165.31298902 -3.51098968 163.53418409 -3.51808167 161.75538635 C-3.53207173 156.91861532 -3.52084166 152.0821986 -3.50437045 147.24544716 C-3.49054588 142.18995492 -3.49697706 137.1344838 -3.50050354 132.07897949 C-3.50320772 123.58823926 -3.48971221 115.09764023 -3.46655273 106.60693359 C-3.4399417 96.78265595 -3.43819513 86.95861444 -3.4499411 77.13431311 C-3.46071062 67.69376439 -3.45453831 58.25330131 -3.44038582 48.8127594 C-3.43461884 44.79047121 -3.43471428 40.76824555 -3.43945122 36.74595642 C-3.44421446 32.01156941 -3.43414651 27.27744181 -3.41249657 22.54310417 C-3.4069196 20.80280876 -3.40647171 19.06248847 -3.41144943 17.32219124 C-3.41738028 14.95184913 -3.40494033 12.5823061 -3.38768005 10.21203613 C-3.3936901 9.51855937 -3.39970014 8.82508262 -3.40589231 8.11059141 C-3.36667232 5.16155394 -3.3252751 3.41629618 -1.47577 1.04924774 C-0.9887659 0.70299599 -0.5017618 0.35674423 0 0 Z " fill="#EA672F" transform="translate(182,151)"/>
<path d="M0 0 C5.23115393 -0.21544006 9.43785303 0.47629807 14.4375 2 C15.67371094 2.37125 16.90992188 2.7425 18.18359375 3.125 C19.11300781 3.41375 20.04242188 3.7025 21 4 C19.02 3.34 17.04 2.68 15 2 C17.17398889 1.30121786 18.58285282 0.89370339 20.82421875 1.46484375 C23.30279373 2.0744753 25.51232523 2.13269283 28.0625 2.125 C29.34833984 2.12886719 29.34833984 2.12886719 30.66015625 2.1328125 C33.15564201 2.09365135 33.15564201 2.09365135 36 1 C34.63016497 4.16115776 34.0109362 4.9927092 31 7 C31.495 7.99 31.495 7.99 32 9 C29.2554511 12.98167511 27.16922776 15.60329773 22.5 17.1875 C14.7194904 17.53363486 5.27760271 14.54148914 -1 10 C-2.05543562 6.69296839 -2.34452118 4.87278698 -1.0625 1.625 C-0.5365625 0.820625 -0.5365625 0.820625 0 0 Z " fill="#F26725" transform="translate(199,298)"/>
<path d="M0 0 C0.928125 0.20625 1.85625 0.4125 2.8125 0.625 C2.8125 2.605 2.8125 4.585 2.8125 6.625 C2.1525 6.625 1.4925 6.625 0.8125 6.625 C0.833125 7.6975 0.85375 8.77 0.875 9.875 C0.8267016 12.77290424 0.68094115 14.91112141 -0.1875 17.625 C-1.1775 17.625 -2.1675 17.625 -3.1875 17.625 C-3.1875 18.285 -3.1875 18.945 -3.1875 19.625 C-7.4775 19.625 -11.7675 19.625 -16.1875 19.625 C-16.1875 18.305 -16.1875 16.985 -16.1875 15.625 C-15.1975 15.625 -14.2075 15.625 -13.1875 15.625 C-13.249375 14.3565625 -13.249375 14.3565625 -13.3125 13.0625 C-13.17214972 9.20286731 -12.35969836 6.28811987 -11.1875 2.625 C-10.424375 2.50125 -9.66125 2.3775 -8.875 2.25 C-5.13430315 1.3800705 -3.97738222 -0.46792732 0 0 Z " fill="#F5621C" transform="translate(242.1875,317.375)"/>
<path d="M0 0 C0.66 0.33 1.32 0.66 2 1 C1.01 2.485 1.01 2.485 0 4 C-0.66 4 -1.32 4 -2 4 C-2 63.4 -2 122.8 -2 184 C-2.33 184 -2.66 184 -3 184 C-3.07001497 160.45236517 -3.12295129 136.90474589 -3.15543652 113.35702801 C-3.17091944 102.4239371 -3.19203616 91.49091078 -3.22631836 80.55786133 C-3.25617711 71.03098392 -3.27556462 61.50415327 -3.28226548 51.97723037 C-3.28618373 46.93064544 -3.29542165 41.88419433 -3.31719017 36.83765221 C-3.33749969 32.09104622 -3.34384505 27.34462963 -3.33932304 22.59798431 C-3.34015073 20.85283442 -3.34614926 19.10767841 -3.35761642 17.36256599 C-3.37247421 14.9855499 -3.36897859 12.60925521 -3.36076355 10.23222351 C-3.36950207 9.53670039 -3.3782406 8.84117728 -3.38724393 8.1245777 C-3.35951098 5.16949679 -3.32912999 3.42196795 -1.47745228 1.04798603 C-0.98989303 0.70215064 -0.50233377 0.35631525 0 0 Z " fill="#D27D59" transform="translate(182,151)"/>
<path d="M0 0 C0.66 0 1.32 0 2 0 C1.95875 1.0725 1.9175 2.145 1.875 3.25 C1.97695407 7.504385 1.97695407 7.504385 4 11 C6.53188648 12.75322937 6.53188648 12.75322937 9 14 C7.32234985 22.54076441 4.65997819 30.72564036 2 39 C-2.29 39 -6.58 39 -11 39 C-11 38.67 -11 38.34 -11 38 C-7.04 38 -3.08 38 1 38 C1 35.69 1 33.38 1 31 C0.34 30.67 -0.32 30.34 -1 30 C-0.67 27.36 -0.34 24.72 0 22 C1.65 21.67 3.3 21.34 5 21 C5 20.01 5 19.02 5 18 C5.66 18 6.32 18 7 18 C7 16.68 7 15.36 7 14 C5.68 14 4.36 14 3 14 C-0.00559652 8.99067246 -0.29341888 5.67276511 0 0 Z " fill="#EC7D4A" transform="translate(194,299)"/>
<path d="M0 0 C0.33 0 0.66 0 1 0 C1.17835515 4.54805635 0.99785435 7.8794254 -1 12 C-0.67 12 -0.34 12 0 12 C0.1953125 18.0546875 0.1953125 18.0546875 0 20 C-0.66 20.66 -1.32 21.32 -2 22 C-2.33 20.02 -2.66 18.04 -3 16 C-3.99 16 -4.98 16 -6 16 C-6.03738281 16.72445313 -6.07476562 17.44890625 -6.11328125 18.1953125 C-6.80218654 28.32627263 -6.80218654 28.32627263 -10 33 C-11.485 33.495 -11.485 33.495 -13 34 C-12.67 35.65 -12.34 37.3 -12 39 C-12.99 39.495 -12.99 39.495 -14 40 C-14.33 40.99 -14.66 41.98 -15 43 C-15.66 43 -16.32 43 -17 43 C-16.32565092 36.39137903 -14.32568809 31.16383681 -10.9375 25.5 C-9.45696792 23.00823657 -8.79852084 21.26963806 -8 18.375 C-6.91802443 14.72333245 -5.46528798 12.85048923 -3 10 C-1.02689164 6.78071794 -0.50783543 3.7241265 0 0 Z " fill="#EB824F" transform="translate(248,273)"/>
<path d="M0 0 C1.32 0 2.64 0 4 0 C-2.14614122 25.14614122 -2.14614122 25.14614122 -5 28 C-7.74485593 28.14507695 -10.38480543 28.18652423 -13.125 28.125 C-13.87910156 28.11597656 -14.63320312 28.10695313 -15.41015625 28.09765625 C-17.27357254 28.0740687 -19.13682593 28.03819719 -21 28 C-20.47458553 20.2501365 -18.44408524 13.3549914 -16 6 C-15.67 6 -15.34 6 -15 6 C-14.77915376 12.09781001 -14.98832325 17.21642935 -17 23 C-17.99 23 -18.98 23 -20 23 C-20 24.32 -20 25.64 -20 27 C-15.71 27 -11.42 27 -7 27 C-7 26.34 -7 25.68 -7 25 C-6.01 25 -5.02 25 -4 25 C-3.67 21.37 -3.34 17.74 -3 14 C-2.34 14 -1.68 14 -1 14 C-0.67 9.38 -0.34 4.76 0 0 Z " fill="#E9956A" transform="translate(246,310)"/>
<path d="M0 0 C0.66 0 1.32 0 2 0 C2.33 0.99 2.66 1.98 3 3 C2.53078125 3.60714844 2.0615625 4.21429688 1.578125 4.83984375 C-0.43206398 7.5914143 -0.34165857 9.19404766 -0.25 12.5625 C-0.23453125 13.51253906 -0.2190625 14.46257812 -0.203125 15.44140625 C-0.09356342 18.11957113 -0.09356342 18.11957113 1 21 C-0.98 21.99 -0.98 21.99 -3 23 C-3.31676843 31.68924582 -3.31676843 31.68924582 -1 40 C-2.485 40.495 -2.485 40.495 -4 41 C-4 40.01 -4 39.02 -4 38 C-4.66 38 -5.32 38 -6 38 C-7.23732531 34.28802407 -6.67085785 31.34029487 -6.125 27.5625 C-5.19711589 20.7195496 -4.49584288 13.88960631 -4 7 C-3.34 7 -2.68 7 -2 7 C-2 6.01 -2 5.02 -2 4 C-1.34 4 -0.68 4 0 4 C0 2.68 0 1.36 0 0 Z " fill="#EA6629" transform="translate(199,257)"/>
<path d="M0 0 C2 1 2 1 2.81640625 3.07421875 C6.82511628 17.11519785 7.94909531 30.96714012 1.27734375 44.4921875 C-0.39252958 47.4067508 -2.06870395 50.25161716 -4 53 C-4.33 53 -4.66 53 -5 53 C-5 51.35 -5 49.7 -5 48 C-3.68 47.34 -2.36 46.68 -1 46 C-1 44.35 -1 42.7 -1 41 C0.485 40.505 0.485 40.505 2 40 C2.0496011 35.67669221 2.0858144 31.35353715 2.10986328 27.0300293 C2.11989352 25.56059888 2.13352101 24.09118829 2.15087891 22.62182617 C2.17525898 20.50434463 2.18651286 18.38712801 2.1953125 16.26953125 C2.20578613 14.99698486 2.21625977 13.72443848 2.22705078 12.41333008 C2.00676078 9.10163706 1.29441414 7.00824917 0 4 C0 2.68 0 1.36 0 0 Z " fill="#E58C63" transform="translate(314,179)"/>
<path d="M0 0 C1.670625 0.2475 1.670625 0.2475 3.375 0.5 C9.20561863 1.22752817 15.37353877 1.87548708 21 0 C19.63016497 3.16115776 19.0109362 3.9927092 16 6 C16.33 6.66 16.66 7.32 17 8 C12.6098259 14.36907833 12.6098259 14.36907833 9.06640625 15.7578125 C4.30520259 16.4817382 0.49592334 15.59230618 -4 14 C-0.68929162 12.99890485 2.30084769 12.89643866 5.75 12.9375 C6.73484375 12.94652344 7.7196875 12.95554687 8.734375 12.96484375 C9.85585937 12.98224609 9.85585937 12.98224609 11 13 C10.67 10.69 10.34 8.38 10 6 C8.35 5.67 6.7 5.34 5 5 C6.32 4.67 7.64 4.34 9 4 C6.03 3.01 3.06 2.02 0 1 C0 0.67 0 0.34 0 0 Z " fill="#EC9163" transform="translate(214,299)"/>
<path d="M0 0 C6.02815781 0.52418764 11.74526291 1.89492808 17 5 C18.66616083 8.25658707 18.30583244 9.89753813 17.34765625 13.3515625 C15.07877867 19.48629587 15.07877867 19.48629587 11.375 21.25 C6.66631181 20.90120828 2.44105063 19.55349004 -2 18 C1.31070838 16.99890485 4.30084769 16.89643866 7.75 16.9375 C8.73484375 16.94652344 9.7196875 16.95554687 10.734375 16.96484375 C11.85585937 16.98224609 11.85585937 16.98224609 13 17 C12.98839844 16.36191406 12.97679687 15.72382813 12.96484375 15.06640625 C12.95582031 14.24011719 12.94679687 13.41382813 12.9375 12.5625 C12.92589844 11.73878906 12.91429687 10.91507812 12.90234375 10.06640625 C13 8 13 8 14 7 C14 6.34 14 5.68 14 5 C12.35 5 10.7 5 9 5 C9 4.34 9 3.68 9 3 C7.88625 2.87625 6.7725 2.7525 5.625 2.625 C2 2 2 2 0 0 Z " fill="#EE996E" transform="translate(228,266)"/>
<path d="M0 0 C1.98 0 3.96 0 6 0 C5.71125 1.07636719 5.4225 2.15273437 5.125 3.26171875 C0.80481416 18.61105466 0.80481416 18.61105466 3.5 33.8125 C3.995 34.534375 4.49 35.25625 5 36 C2.49198703 35.04868473 1.028285 34.03023569 -0.8125 32.0625 C-4.15588337 23.44009027 0.10860156 11.81463049 2 3 C1.01 3.495 1.01 3.495 0 4 C0 2.68 0 1.36 0 0 Z " fill="#EA8A5D" transform="translate(242,165)"/>
<path d="M0 0 C2.8125 1 2.8125 1 5 2 C5 2.33 5 2.66 5 3 C1.04 3 -2.92 3 -7 3 C-7 6.3 -7 9.6 -7 13 C-6.01 13 -5.02 13 -4 13 C-4 13.66 -4 14.32 -4 15 C-3.34 15.33 -2.68 15.66 -2 16 C-2 16.66 -2 17.32 -2 18 C-1.236875 17.938125 -0.47375 17.87625 0.3125 17.8125 C3 18 3 18 4.8125 19.5 C5.204375 19.995 5.59625 20.49 6 21 C0.84123287 20.3386196 -4.2294812 19.09902827 -9 17 C-10.72194097 13.55611807 -10.37796284 9.77311176 -10 6 C-7.60812908 0.78137254 -5.66070819 -0.39493313 0 0 Z " fill="#EB8F62" transform="translate(210,259)"/>
<path d="M0 0 C2.01822917 0.06510417 4.03645833 0.13020833 6.0546875 0.1953125 C6.36237981 8.1953125 6.36237981 8.1953125 4.0546875 11.1953125 C1.9296875 11.9453125 1.9296875 11.9453125 0.0546875 12.1953125 C-0.6053125 11.2053125 -1.2653125 10.2153125 -1.9453125 9.1953125 C-2.9353125 9.1953125 -3.9253125 9.1953125 -4.9453125 9.1953125 C-4.9453125 8.5353125 -4.9453125 7.8753125 -4.9453125 7.1953125 C-3.9553125 6.8653125 -2.9653125 6.5353125 -1.9453125 6.1953125 C-1.6153125 5.2053125 -1.2853125 4.2153125 -0.9453125 3.1953125 C-1.9353125 2.8653125 -2.9253125 2.5353125 -3.9453125 2.1953125 C-1.9453125 0.1953125 -1.9453125 0.1953125 0 0 Z " fill="#F7611B" transform="translate(229.9453125,288.8046875)"/>
<path d="M0 0 C0.66 0.33 1.32 0.66 2 1 C1.360625 1.103125 0.72125 1.20625 0.0625 1.3125 C-0.618125 1.539375 -1.29875 1.76625 -2 2 C-2.33 2.99 -2.66 3.98 -3 5 C-3.66 5 -4.32 5 -5 5 C-5 5.66 -5 6.32 -5 7 C-3.35 6.67 -1.7 6.34 0 6 C-0.66 7.32 -1.32 8.64 -2 10 C-3.65 10 -5.3 10 -7 10 C-7.33 10.99 -7.66 11.98 -8 13 C-8.99 13 -9.98 13 -11 13 C-11 13.66 -11 14.32 -11 15 C-11.66 15 -12.32 15 -13 15 C-13.33 16.32 -13.66 17.64 -14 19 C-14.33 18.34 -14.66 17.68 -15 17 C-12.26733953 10.3969566 -8.97002762 4.98001841 -3 1 C-2.01 0.67 -1.02 0.34 0 0 Z " fill="#EA7D47" transform="translate(267,224)"/>
<path d="M0 0 C1.45862344 3.86440495 0.53840142 6.6279159 -0.625 10.5 C-0.94726562 11.6240625 -1.26953125 12.748125 -1.6015625 13.90625 C-3.22306661 17.49348814 -4.65814656 18.95638505 -8 21 C-10.38671875 21.4609375 -10.38671875 21.4609375 -12.6875 21.375 C-13.83798828 21.35566406 -13.83798828 21.35566406 -15.01171875 21.3359375 C-17 21 -17 21 -19 19 C-18.31292969 18.96261719 -17.62585938 18.92523438 -16.91796875 18.88671875 C-16.01691406 18.82097656 -15.11585938 18.75523437 -14.1875 18.6875 C-13.29417969 18.62949219 -12.40085937 18.57148438 -11.48046875 18.51171875 C-8.65237093 17.9282844 -7.7508257 17.24634241 -6 15 C-4.54983932 12.01437508 -3.7512857 9.02730392 -3 5.8125 C-2 2 -2 2 0 0 Z " fill="#EB8B5C" transform="translate(276,185)"/>
<path d="M0 0 C6.16260282 -0.63751064 10.34849787 0.57792766 16 3 C16 3.33 16 3.66 16 4 C13.36 4 10.72 4 8 4 C8 3.34 8 2.68 8 2 C5.69 2 3.38 2 1 2 C1 6.62 1 11.24 1 16 C0.34 16 -0.32 16 -1 16 C-2.8291543 12.91154332 -3.2064877 10.98729251 -2.75 7.4375 C-2.66234375 6.67308594 -2.5746875 5.90867187 -2.484375 5.12109375 C-2 3 -2 3 0 0 Z " fill="#E8885A" transform="translate(200,279)"/>
<path d="M0 0 C1.32 0.33 2.64 0.66 4 1 C-4.16721373 6.8898176 -12.36712227 8.86786475 -22 11 C-22.99 11.33 -23.98 11.66 -25 12 C-25 10.68 -25 9.36 -25 8 C-24.154375 7.90203125 -23.30875 7.8040625 -22.4375 7.703125 C-15.39590498 6.77491475 -10.20612047 5.38515662 -4 2 C-2.68 2 -1.36 2 0 2 C0 1.34 0 0.68 0 0 Z " fill="#EC935E" transform="translate(293,243)"/>
<path d="M0 0 C7.35012956 0.57648075 14.01424576 2.71046164 21 5 C22.06511827 9.37219878 21.66434402 11.79018866 20 16 C18.768606 12.30581799 19.35567236 9.7943739 20 6 C17.03 6 14.06 6 11 6 C11 5.34 11 4.68 11 4 C9.9275 3.896875 8.855 3.79375 7.75 3.6875 C4.14179128 3.02599507 2.63604977 2.42516579 0 0 Z " fill="#EB8E66" transform="translate(216,283)"/>
<path d="M0 0 C0.66 0 1.32 0 2 0 C1.34 3.63 0.68 7.26 0 11 C-3 12 -3 12 -5.6875 11.0625 C-9.70821747 9.77283591 -12.7973117 9.85507971 -17 10 C-17 9.01 -17 8.02 -17 7 C-11.47322267 6.80607799 -7.24385089 7.2520497 -2 9 C-1.34 6.03 -0.68 3.06 0 0 Z " fill="#E68859" transform="translate(227,230)"/>
<path d="M0 0 C1.67517812 0.47231189 3.33376337 1.00271801 4.98828125 1.54296875 C4.98828125 1.87296875 4.98828125 2.20296875 4.98828125 2.54296875 C-1.94171875 2.04796875 -1.94171875 2.04796875 -9.01171875 1.54296875 C-9.01171875 2.53296875 -9.01171875 3.52296875 -9.01171875 4.54296875 C-10.00171875 4.54296875 -10.99171875 4.54296875 -12.01171875 4.54296875 C-11.8977321 6.16877841 -11.77016216 7.79364032 -11.63671875 9.41796875 C-11.56710938 10.32289063 -11.4975 11.2278125 -11.42578125 12.16015625 C-11.21603743 14.72238778 -11.21603743 14.72238778 -9.01171875 16.54296875 C-10.33171875 16.54296875 -11.65171875 16.54296875 -13.01171875 16.54296875 C-14.23041 10.5713816 -14.07469569 5.90887849 -10.82421875 0.60546875 C-7.41860596 -1.39092495 -3.74299578 -0.8503505 0 0 Z " fill="#E99873" transform="translate(220.01171875,241.45703125)"/>
<path d="M0 0 C1.670625 0.2475 1.670625 0.2475 3.375 0.5 C9.20561863 1.22752817 15.37353877 1.87548708 21 0 C19.63016497 3.16115776 19.0109362 3.9927092 16 6 C16.33 6.66 16.66 7.32 17 8 C16.01 8.99 15.02 9.98 14 11 C14 9.35 14 7.7 14 6 C9.41664092 4.07794619 4.72065967 2.54269924 0 1 C0 0.67 0 0.34 0 0 Z " fill="#EDA683" transform="translate(214,299)"/>
<path d="M0 0 C0.33 0 0.66 0 1 0 C1.020625 0.928125 1.04125 1.85625 1.0625 2.8125 C1.62844359 6.00696214 1.62844359 6.00696214 3.625 7.06640625 C5.38218533 7.79974771 7.19037549 8.40775925 9 9 C9 10.32 9 11.64 9 13 C7.68 13.33 6.36 13.66 5 14 C4.71125 13.360625 4.4225 12.72125 4.125 12.0625 C3.17176549 9.84793921 3.17176549 9.84793921 1 9 C1 8.34 1 7.68 1 7 C0.34 7 -0.32 7 -1 7 C-0.67 4.69 -0.34 2.38 0 0 Z " fill="#EC7C4A" transform="translate(251,243)"/>
<path d="M0 0 C0.66 0.33 1.32 0.66 2 1 C1.79503906 1.74765625 1.59007812 2.4953125 1.37890625 3.265625 C1.10949219 4.25046875 0.84007812 5.2353125 0.5625 6.25 C0.29566406 7.22453125 0.02882812 8.1990625 -0.24609375 9.203125 C-0.85506921 11.46232931 -1.43250524 13.73002095 -2 16 C-6.29 16 -10.58 16 -15 16 C-15 15.67 -15 15.34 -15 15 C-11.04 15 -7.08 15 -3 15 C-3 11.7 -3 8.4 -3 5 C-2.34 4.67 -1.68 4.34 -1 4 C-0.34786708 1.97536745 -0.34786708 1.97536745 0 0 Z " fill="#EC8A5F" transform="translate(198,322)"/>
<path d="M0 0 C0.66 0 1.32 0 2 0 C2.03738281 0.79664063 2.07476562 1.59328125 2.11328125 2.4140625 C2.47956941 8.31776574 2.78602794 12.96943503 6 18 C3.49198703 17.04868473 2.028285 16.03023569 0.1875 14.0625 C-1.64053904 9.34808353 -0.71551378 4.92238999 0 0 Z " fill="#E79164" transform="translate(241,183)"/>
<path d="M0 0 C5.46137814 -0.09752461 10.59255982 0.22750855 16 1 C16 2.65 16 4.3 16 6 C16.66 6.33 17.32 6.66 18 7 C15 7 15 7 12.9375 5.6875 C8.84961878 3.3391427 4.52757561 2.23958866 0 1 C0 0.67 0 0.34 0 0 Z " fill="#EB8B57" transform="translate(231,264)"/>
<path d="M0 0 C1.60379341 -0.05416188 3.20811406 -0.09286638 4.8125 -0.125 C5.70582031 -0.14820313 6.59914062 -0.17140625 7.51953125 -0.1953125 C10 0 10 0 13 2 C15.32108669 2.70812814 17.65377147 3.38024152 20 4 C20 4.66 20 5.32 20 6 C15.41105799 5.32930848 11.07452793 4.23877704 6.625 2.9375 C5.37976563 2.57527344 4.13453125 2.21304687 2.8515625 1.83984375 C1.91054687 1.56269531 0.96953125 1.28554688 0 1 C0 0.67 0 0.34 0 0 Z " fill="#EB9265" transform="translate(211,258)"/>
<path d="M0 0 C1.19234985 2.87689064 1.02291478 3.93988906 -0.109375 6.91015625 C-0.65078125 7.95042969 -1.1921875 8.99070313 -1.75 10.0625 C-2.28109375 11.10535156 -2.8121875 12.14820313 -3.359375 13.22265625 C-4.7508773 15.57827085 -5.95623894 17.22094293 -8 19 C-8 17.35 -8 15.7 -8 14 C-6.68 13.34 -5.36 12.68 -4 12 C-4 10.35 -4 8.7 -4 7 C-3.01 6.67 -2.02 6.34 -1 6 C-1.020625 5.195625 -1.04125 4.39125 -1.0625 3.5625 C-1 1 -1 1 0 0 Z " fill="#EF9C6D" transform="translate(317,213)"/>
<path d="M0 0 C0.66 0.33 1.32 0.66 2 1 C1.01 2.485 1.01 2.485 0 4 C-0.66 4 -1.32 4 -2 4 C-2 13.57 -2 23.14 -2 33 C-2.33 33 -2.66 33 -3 33 C-3.07419134 28.78250781 -3.1286204 24.56536189 -3.16479492 20.34741211 C-3.17987589 18.91277448 -3.2003438 17.47818292 -3.22631836 16.04370117 C-3.26273437 13.98084141 -3.27973243 11.91859142 -3.29296875 9.85546875 C-3.3086792 8.61434326 -3.32438965 7.37321777 -3.34057617 6.09448242 C-3 3 -3 3 -1.48168945 1.0715332 C-0.99273193 0.71792725 -0.50377441 0.36432129 0 0 Z " fill="#D6815B" transform="translate(182,151)"/>
<path d="M0 0 C0.66 0 1.32 0 2 0 C2.33 0.99 2.66 1.98 3 3 C2.53078125 3.60714844 2.0615625 4.21429688 1.578125 4.83984375 C-0.43206398 7.5914143 -0.34165857 9.19404766 -0.25 12.5625 C-0.23453125 13.51253906 -0.2190625 14.46257812 -0.203125 15.44140625 C-0.09356342 18.11957113 -0.09356342 18.11957113 1 21 C0.01 21.66 -0.98 22.32 -2 23 C-2 16.73 -2 10.46 -2 4 C-1.34 4 -0.68 4 0 4 C0 2.68 0 1.36 0 0 Z " fill="#F2A98D" transform="translate(199,257)"/>
<path d="M0 0 C6.20970773 -0.33266291 10.28264895 0.54970669 16 3 C16 3.33 16 3.66 16 4 C13.36 4 10.72 4 8 4 C8 3.34 8 2.68 8 2 C3.545 2.495 3.545 2.495 -1 3 C-0.67 2.01 -0.34 1.02 0 0 Z " fill="#E99D79" transform="translate(200,279)"/>
<path d="M0 0 C5.19209404 -0.21192221 9.126739 0.4087311 14 2 C14 2.33 14 2.66 14 3 C9.05 3.33 4.1 3.66 -1 4 C-0.67 2.68 -0.34 1.36 0 0 Z " fill="#EA8C63" transform="translate(199,298)"/>
<path d="M0 0 C6.60929383 1.00413308 10.79229827 2.78951775 16 7 C15.34 7.66 14.68 8.32 14 9 C14 8.34 14 7.68 14 7 C12.68 7 11.36 7 10 7 C10 6.34 10 5.68 10 5 C7.69 4.67 5.38 4.34 3 4 C3 3.34 3 2.68 3 2 C2.01 2 1.02 2 0 2 C0 1.34 0 0.68 0 0 Z " fill="#E68B5F" transform="translate(233,246)"/>
<path d="M0 0 C6.18160604 0.53753096 11.326858 2.54582388 17 5 C17 5.66 17 6.32 17 7 C16.01 7 15.02 7 14 7 C14 6.34 14 5.68 14 5 C12.35 5 10.7 5 9 5 C9 4.34 9 3.68 9 3 C7.88625 2.87625 6.7725 2.7525 5.625 2.625 C2 2 2 2 0 0 Z " fill="#EA9C75" transform="translate(228,266)"/>
<path d="M0 0 C0.8125 1.6875 0.8125 1.6875 1 4 C-1.71682967 7.65073987 -3.32629817 8.8564242 -7.8125 9.8125 C-9.3903125 9.9053125 -9.3903125 9.9053125 -11 10 C-6.25 6 -6.25 6 -4 6 C-4 5.34 -4 4.68 -4 4 C-3.34 4 -2.68 4 -2 4 C-1.34 2.68 -0.68 1.36 0 0 Z " fill="#ED9268" transform="translate(280,214)"/>
<path d="M0 0 C0.33 0 0.66 0 1 0 C1.22084624 6.09781001 1.01167675 11.21642935 -1 17 C-1.33 17 -1.66 17 -2 17 C-2.3690205 5.47835991 -2.3690205 5.47835991 0 0 Z " fill="#EB7F4C" transform="translate(230,316)"/>
<path d="M0 0 C0.33 0 0.66 0 1 0 C1.33 2.64 1.66 5.28 2 8 C1.01 8.495 1.01 8.495 0 9 C-0.33 9.99 -0.66 10.98 -1 12 C-1.66 12 -2.32 12 -3 12 C-2.49202991 7.6822542 -1.80317221 3.96697886 0 0 Z " fill="#EA885A" transform="translate(234,304)"/>
<path d="M0 0 C-4.625 3 -4.625 3 -8 3 C-8 3.66 -8 4.32 -8 5 C-8.66 5 -9.32 5 -10 5 C-10.33 3.68 -10.66 2.36 -11 1 C-3.57142857 -1.42857143 -3.57142857 -1.42857143 0 0 Z " fill="#EC8D5D" transform="translate(260,305)"/>
<path d="M0 0 C-0.3125 3.375 -0.3125 3.375 -1 7 C-1.99 7.66 -2.98 8.32 -4 9 C-4.33 6.36 -4.66 3.72 -5 1 C-2 0 -2 0 0 0 Z " fill="#EB804A" transform="translate(246,273)"/>
<path d="M0 0 C1.62580966 0.11398665 3.25067157 0.24155659 4.875 0.375 C5.77992188 0.44460937 6.68484375 0.51421875 7.6171875 0.5859375 C10 1 10 1 12 3 C8.71303767 3.79953138 7.28976808 4.09658936 4 3 C4 3.66 4 4.32 4 5 C3.34 5 2.68 5 2 5 C1.34 3.35 0.68 1.7 0 0 Z " fill="#ED733B" transform="translate(218,243)"/>
<path d="M0 0 C-0.804375 0.61875 -1.60875 1.2375 -2.4375 1.875 C-6.15135247 5.49443249 -5.89481263 10.07531881 -6 15 C-6.33 15 -6.66 15 -7 15 C-7.02715383 13.25008666 -7.04646551 11.50005055 -7.0625 9.75 C-7.07410156 8.77546875 -7.08570313 7.8009375 -7.09765625 6.796875 C-7.0111252 4.31862574 -6.84745178 2.32383005 -6 0 C-3.50907189 -1.24546405 -2.58919267 -0.7767578 0 0 Z " fill="#F3B890" transform="translate(210,241)"/>
<path d="M0 0 C0.66 0.66 1.32 1.32 2 2 C1.57507874 3.29585916 1.13454118 4.5866044 0.6875 5.875 C0.44386719 6.59429687 0.20023437 7.31359375 -0.05078125 8.0546875 C-1 10 -1 10 -4 12 C-4 11.01 -4 10.02 -4 9 C-3.34 9 -2.68 9 -2 9 C-2.226875 8.2575 -2.45375 7.515 -2.6875 6.75 C-3 4 -3 4 -1.5625 1.6875 C-1.046875 1.130625 -0.53125 0.57375 0 0 Z " fill="#EE743A" transform="translate(309,224)"/>
<path d="M0 0 C0.99 0 1.98 0 3 0 C1.61122646 3.35620271 0.08322035 5.07298728 -3 7 C-3.66 7 -4.32 7 -5 7 C-5 6.01 -5 5.02 -5 4 C-4.0409375 3.8453125 -4.0409375 3.8453125 -3.0625 3.6875 C-2.381875 3.460625 -1.70125 3.23375 -1 3 C-0.67 2.01 -0.34 1.02 0 0 Z " fill="#E98B60" transform="translate(302,236)"/>
<path d="M0 0 C0.9880383 3.61457345 1.3673245 7.15756127 1.71875 10.87890625 C1.9565083 13.18416348 1.9565083 13.18416348 3 16 C2.01 16.33 1.02 16.66 0 17 C-1.13770571 11.31147144 -1.86128204 5.58384613 0 0 Z " fill="#EA9B76" transform="translate(195,281)"/>
<path d="M0 0 C3.96 0.33 7.92 0.66 12 1 C12.33 1.99 12.66 2.98 13 4 C8.428721 3.45144652 4.32564205 2.58255197 0 1 C0 0.67 0 0.34 0 0 Z " fill="#E99365" transform="translate(201,295)"/>
<path d="M0 0 C0.66 0 1.32 0 2 0 C2.28571429 7.42857143 2.28571429 7.42857143 0 11 C-1.37432457 7.18243176 -0.67975039 3.92744671 0 0 Z " fill="#EB692B" transform="translate(234,289)"/>
<path d="M0 0 C1.79323253 0.28187936 3.58457126 0.5758281 5.375 0.875 C6.37273437 1.03742188 7.37046875 1.19984375 8.3984375 1.3671875 C11 2 11 2 13 4 C11.20741442 3.91306859 9.41584856 3.80489496 7.625 3.6875 C6.62726563 3.62949219 5.62953125 3.57148438 4.6015625 3.51171875 C3.74304688 3.34285156 2.88453125 3.17398437 2 3 C1.34 2.01 0.68 1.02 0 0 Z " fill="#E99169" transform="translate(215,262)"/>
<path d="M0 0 C3.36591866 1.44253657 5.51047079 3.33264727 8 6 C7.34 6.66 6.68 7.32 6 8 C5.67 7.34 5.34 6.68 5 6 C4.154375 5.525625 3.30875 5.05125 2.4375 4.5625 C1.633125 4.046875 0.82875 3.53125 0 3 C0 2.01 0 1.02 0 0 Z " fill="#ED8F66" transform="translate(298,160)"/>
<path d="M0 0 C1.60080151 4.00200378 0.29279692 7.04556236 -1 11 C-2.55136786 8.53606281 -3.03039129 7.31910854 -2.75 4.375 C-2 2 -2 2 0 0 Z " fill="#EF9663" transform="translate(276,185)"/>
<path d="M0 0 C2.475 0.99 2.475 0.99 5 2 C4.67 3.65 4.34 5.3 4 7 C3.01 6.67 2.02 6.34 1 6 C0.67 4.02 0.34 2.04 0 0 Z " fill="#ED8E63" transform="translate(197,302)"/>
<path d="M0 0 C0.66 0 1.32 0 2 0 C2 0.66 2 1.32 2 2 C2.99 2.33 3.98 2.66 5 3 C5.33 6.3 5.66 9.6 6 13 C5.67 13 5.34 13 5 13 C4.80664062 12.39671875 4.61328125 11.7934375 4.4140625 11.171875 C4.15367187 10.37265625 3.89328125 9.5734375 3.625 8.75 C3.36976563 7.96109375 3.11453125 7.1721875 2.8515625 6.359375 C2.04826333 4.13372042 1.10288338 2.09068328 0 0 Z " fill="#EA9E72" transform="translate(280,179)"/>
<path d="M0 0 C0.66 0 1.32 0 2 0 C2.24042276 4.08718695 1.42258812 7.17679443 0 11 C-0.33 11 -0.66 11 -1 11 C-1.0270043 9.54176788 -1.04639787 8.08339325 -1.0625 6.625 C-1.07410156 5.81289063 -1.08570313 5.00078125 -1.09765625 4.1640625 C-1 2 -1 2 0 0 Z " fill="#E8835C" transform="translate(201,263)"/>
<path d="M0 0 C0.33 0 0.66 0 1 0 C1.44041451 5.37305699 1.44041451 5.37305699 1 8 C-1.5 10 -1.5 10 -4 11 C-3.71125 10.29875 -3.4225 9.5975 -3.125 8.875 C-1.97866412 5.94547497 -0.97374346 2.99078347 0 0 Z " fill="#E99B6F" transform="translate(285,203)"/>
<path d="M0 0 C2 1 2 1 3.125 3.25 C4.00513321 6.01613295 4.1645438 8.12048351 4 11 C0.85041169 7.57653445 0.43820891 4.55737263 0 0 Z " fill="#EC9D7A" transform="translate(314,179)"/>
<path d="M0 0 C4.75 0.75 4.75 0.75 7 3 C5.02 3.66 3.04 4.32 1 5 C0.67 3.35 0.34 1.7 0 0 Z " fill="#EC8251" transform="translate(284,153)"/>
<path d="M0 0 C8.57142857 0.85714286 8.57142857 0.85714286 12 3 C4.61538462 3.36923077 4.61538462 3.36923077 1.5 1.5 C1.005 1.005 0.51 0.51 0 0 Z " fill="#EDA07B" transform="translate(216,283)"/>
<path d="M0 0 C0.66 0 1.32 0 2 0 C2.33 0.99 2.66 1.98 3 3 C1.125 6.1875 1.125 6.1875 -1 9 C-1.33 9 -1.66 9 -2 9 C-2 7.35 -2 5.7 -2 4 C-1.34 4 -0.68 4 0 4 C0 2.68 0 1.36 0 0 Z " fill="#EC8A61" transform="translate(199,257)"/>
<path d="M0 0 C0.66 0 1.32 0 2 0 C0.75023244 3.65316671 0.32901247 4.78065836 -3 7 C-3.33 5.68 -3.66 4.36 -4 3 C-2.68 3 -1.36 3 0 3 C0 2.01 0 1.02 0 0 Z " fill="#E88957" transform="translate(264,296)"/>
<path d="M0 0 C1.98 0 3.96 0 6 0 C5.34 1.32 4.68 2.64 4 4 C2.68 3.67 1.36 3.34 0 3 C0 2.01 0 1.02 0 0 Z " fill="#F16525" transform="translate(221,233)"/>
<path d="M0 0 C0.66 0 1.32 0 2 0 C2.33 0.99 2.66 1.98 3 3 C2.67 3.66 2.34 4.32 2 5 C2.99 5.33 3.98 5.66 5 6 C2.625 5.6875 2.625 5.6875 0 5 C-0.66 4.01 -1.32 3.02 -2 2 C-1.34 1.34 -0.68 0.68 0 0 Z " fill="#EE6824" transform="translate(246,195)"/>
<path d="M0 0 C0.598125 0.20625 1.19625 0.4125 1.8125 0.625 C1.173125 0.893125 0.53375 1.16125 -0.125 1.4375 C-2.51881686 2.51167752 -2.51881686 2.51167752 -3.1875 5.625 C-3.8475 4.305 -4.5075 2.985 -5.1875 1.625 C-2.1875 -0.375 -2.1875 -0.375 0 0 Z " fill="#EF9267" transform="translate(239.1875,169.375)"/>
</svg>
